<svg width="64" height="64" viewBox="0 0 64 64" fill="none" xmlns="http://www.w3.org/2000/svg">
<path d="M51 11.9C52.9 6.1 45.6 2.9 42.6 6.1C38.7 -0.299999 30.4 4.3 30.4 4.3C30.4 4.3 25.9 -0.699998 20.1 3.9C18 1.8 11.7 1.3 11.9 11.5C4.90005 12.1 5.00005 21.9 8.20005 23.4L54.4 27.4C58.9 25.6 60.6 13.6 51 11.9Z" fill="#EDD8B4"/>
<path d="M21.7999 4.80011C22.2999 0.500106 13.9999 1.30011 15.2999 6.00011C12.1999 7.10011 14.3999 11.8001 16.8999 10.6001C16.9999 14.3001 23.1999 13.4001 22.2999 9.50011C24.5999 10.5001 26.5999 4.30011 21.7999 4.80011Z" fill="#FFF8D6"/>
<path d="M20.7 6.09996C21.6 4.49996 18.5999 2.69996 18.3999 5.59996C16.5999 4.09996 14.2999 8.29996 17.4999 8.39996C15.9999 10.7 19.8999 12.1 20.5999 9.89996C23.6999 9.59996 22.8 5.59996 20.7 6.09996Z" fill="#EDD8B4"/>
<path d="M20.8 7.70009C19.6 7.40009 19.8 7.30009 19.9 6.40009C20.1 4.70009 19.1 4.70009 19.2 6.30009C19.3 7.30009 19.1 7.70009 18.1 6.90009C16.8 6.00009 16.7 7.00009 17.9 7.40009C19 7.90009 18.6 7.60009 18.6 9.00009C18.6 10.1001 19.2 10.4001 19.3 9.00009C19.4 7.60009 19.3 7.70009 20.4 8.40009C21.5 9.00009 21.9 8.00009 20.8 7.70009Z" fill="#C9AE81"/>
<path d="M17.9001 15.8001C20.2001 13.8001 14.6001 8.40012 12.5001 13.9001C8.10005 11.2001 6.00005 19.3001 10.3001 21.6001C12.4001 22.8001 24.5001 22.0001 17.9001 15.8001Z" fill="#FFF8D6"/>
<path d="M13.3 15.7999C12.1 13.9999 8.5 16.2999 11.4 18.0999C5.1 20.9999 22.8 23.0999 17.3 17.7999C18.7 14.1999 14 13.1999 13.3 15.7999Z" fill="#EDD8B4"/>
<path d="M15.1 16.5001C14.1 17.6001 14.1 17.4001 13.2 16.9001C11.5 15.8001 10.9 17.5001 12.8 18.3001C13.9 18.7001 13.8 18.9001 15.3 19.7001C16.5 20.3001 17.1 19.7001 15.6 18.9001C14.1 18.1001 14.2 18.3001 15.6 17.4001C16.9 16.3001 16 15.4001 15.1 16.5001Z" fill="#C9AE81"/>
<path d="M55.6 18.6001C57.7 16.8001 52.7 12.0001 50.8 16.9001C46.9 14.5001 43.5 22.9001 48.8 23.8001C48.4 27.4001 54 27.4001 54 24.4001C57.6 26.1001 59.9 19.6001 55.6 18.6001Z" fill="#FFF8D6"/>
<path d="M51.5 18.6C50.4 17 47.1 19 49.8 20.6C47.4 21.7 50.4 25.8 52.1 22.7C53.7 25.2 56.9001 22 55.2001 20.3C56.3001 17.2 52.1 16.3 51.5 18.6Z" fill="#EDD8B4"/>
<path d="M53.1 19.2C52.2 20.2 52.2 20 51.4 19.5C49.9 18.5 49.3 19.4 51 20.1C52 20.5 52.3 20.8 51 21.5C49.5 22.3 50.5 22.9 51.4 22C52.4 21 51.9 21.3 53.2 22C54.3 22.5 54.8 22 53.5 21.3C52.2 20.6 52.2 20.7 53.5 19.9C54.7 19.1 53.9 18.2 53.1 19.2Z" fill="#C9AE81"/>
<path d="M35.8 6.99996C38 5.09996 32.7 0.0999579 30.8 5.19996C26.7 2.69996 23.2 11.4 28.7 12.4C28.3 16.1 34.1 16.2 34.2 13C37.9 14.8 40.2 7.99996 35.8 6.99996Z" fill="#FFF8D6"/>
<path d="M31.5 6.99999C30.4 5.29999 27 7.39999 29.7 9.09999C27.2 10.2 30.3 14.5 32.1 11.3C33.7 13.9 37.1 10.6 35.3 8.79999C36.6 5.49999 32.1 4.59999 31.5 6.99999Z" fill="#EDD8B4"/>
<path d="M33.1 7.60012C32.1 8.70012 32.2 8.50012 31.3 8.00012C29.7 7.00012 29.1 7.90012 30.9 8.60012C31.9 9.00012 32.2 9.40012 31 10.0001C29.4 10.9001 30.4 11.5001 31.4 10.5001C32.4 9.50012 31.9 9.80012 33.3 10.5001C34.4 11.1001 35 10.5001 33.6 9.80012C32.2 9.00012 32.3 9.20012 33.6 8.40012C34.8 7.50012 34 6.70012 33.1 7.60012Z" fill="#C9AE81"/>
<path d="M27.6 16.1C28.2 13.2 20.6 12.1 22.3 17.7C17.3 18.1 19.4 25.1 25.2 25.1C33.4 25 31.9 14.2 27.6 16.1Z" fill="#FFF8D6"/>
<path d="M23.2 18.8C21.6 26.7 33.1 23.8 28.3 18C27.3 14.4 23.8 16.2 23.2 18.8Z" fill="#EDD8B4"/>
<path d="M25.7 18.1999C25.6 19.6999 24.5 18.9999 23.7 19.6999C21.4 21.6999 27.6 23.5999 28.6 19.9999C28.8 19.0999 26 20.0999 26.5 18.5999C27.1 17.0999 25.9 16.8999 25.7 18.1999Z" fill="#C9AE81"/>
<path d="M45.3 9.30009C45.9 6.40009 38.4 5.40009 40.1 10.9001C35.2 11.3001 37.8 20.6001 42.9 18.1001C44.9 21.4001 49.7 18.0001 47.8 15.4001C51.9 14.5001 49.6 7.50009 45.3 9.30009Z" fill="#FFF8D6"/>
<path d="M41.8 11.9C39.8 11.2 38.4 15 41.7 14.7C40.4 17.1 45.6 18.8 45 15.1C48 16.3 48.7 11.5 46.1 11.2C45 7.59995 40.8 9.49995 41.8 11.9Z" fill="#EDD8B4"/>
<path d="M43.6 11.4C43.5 12.9 43.4 12.7 42.4 12.7C40.5 12.8 40.6 13.9 42.4 13.5C43.5 13.2 44 13.3 43.3 14.7C42.5 16.4 43.8 16.3 44 14.8C44.2 13.3 44 13.9 45.5 13.7C46.8 13.5 46.9 12.7 45.3 12.9C43.7 13.1 43.9 13.2 44.4 11.7C44.9 10.3 43.7 10.1 43.6 11.4Z" fill="#C9AE81"/>
<path d="M7.8 22.4L15.7 62H22.2L16.9 22.4C16.5 16.8 7 16.8 7.8 22.4Z" fill="#ED4C5C"/>
<path d="M16.9 22.4L22.2 62H28.7L26 22.4C26 16.8 16.5 16.8 16.9 22.4Z" fill="#F9F9F9"/>
<path d="M26 22.4L28.7 62H35.2V22.4C35.5 16.8 26 16.8 26 22.4Z" fill="#ED4C5C"/>
<path d="M35.2 22.4V62H41.5999L44.2999 22.4C44.8999 16.8 35.5 16.8 35.2 22.4Z" fill="#F9F9F9"/>
<path d="M41.6 62L45.7 59.2L47.6 23.7C48.2 19.4 44.6 17.8 44.2 22.4L41.6 62Z" fill="#C94747"/>
<path d="M49.2001 56.8001L51.1 25.0001C51.8 21.0001 48.3001 19.4001 47.7001 23.7001L45.8 59.2001L49.2001 56.8001Z" fill="#E8E8E8"/>
<path d="M52.0999 54.9001L54.4 26.4001C55.2 22.7001 51.7999 21.1001 51.0999 25.1001L49.2 56.9001L52.0999 54.9001Z" fill="#C94747"/>
<path d="M54 53.6L56.3 27.6C56.5 24.7 54.7 23.7 54.4 26.4L52.1 54.9L54 53.6Z" fill="#E8E8E8"/>
</svg>
